# This file uses centimeters as units for non-parametric coordinates.

mtllib PlayerHorns.mtl
g default
v -6.115247 14.038055 9.211481
v -2.780900 14.269287 10.074474
v -6.837114 15.211639 12.590040
v -3.939337 15.412598 13.340040
v -6.837116 18.109406 11.813593
v -3.939338 18.310364 12.563593
v -6.189417 17.432480 8.588518
v -2.855069 17.663712 9.451509
v -7.919001 18.647125 16.186876
v -5.451828 18.814499 16.811541
v -5.004723 20.169815 14.758474
v -7.471897 20.002441 14.133810
v -8.180588 23.217957 17.003052
v -6.676913 23.316666 17.371483
v -6.317214 23.629059 15.972095
v -7.820888 23.530350 15.603662
v -8.025105 26.105240 16.870600
v -7.453453 26.141937 17.007607
v -7.305034 26.140060 16.477098
v -7.876685 26.103348 16.340094
v 2.780900 14.269287 10.074474
v 6.115247 14.038055 9.211481
v 3.939337 15.412598 13.340040
v 6.837114 15.211639 12.590040
v 3.939338 18.310364 12.563593
v 6.837116 18.109406 11.813593
v 2.855069 17.663712 9.451509
v 6.189417 17.432480 8.588518
v 5.451827 18.814499 16.811541
v 7.919001 18.647125 16.186876
v 7.471896 20.002441 14.133810
v 5.004723 20.169815 14.758474
v 6.676913 23.316666 17.371483
v 8.180588 23.217957 17.003052
v 7.820888 23.530350 15.603662
v 6.317214 23.629059 15.972095
v 7.453453 26.141937 17.007607
v 8.025105 26.105240 16.870600
v 7.876685 26.103348 16.340094
v 7.305034 26.140060 16.477098
vt 0.713234 0.007525
vt 0.738665 0.142783
vt 0.607845 0.171338
vt 0.576082 0.056023
vt 0.512933 0.248477
vt 0.428550 0.195395
vt 0.453222 0.391781
vt 0.395509 0.379823
vt 0.423756 0.497191
vt 0.401793 0.497373
vt 0.051557 0.444862
vt 0.075217 0.309283
vt 0.212992 0.355984
vt 0.182739 0.471704
vt 0.362326 0.493414
vt 0.278498 0.547367
vt 0.396177 0.675713
vt 0.338555 0.688100
vt 0.389405 0.790918
vt 0.367441 0.790845
vt 0.809382 0.119917
vt 0.833060 0.255493
vt 0.701881 0.282353
vt 0.671613 0.166636
vt 0.606132 0.358028
vt 0.522297 0.304086
vt 0.546093 0.498769
vt 0.488469 0.486389
vt 0.517220 0.601517
vt 0.495257 0.601593
vt 0.051557 0.142801
vt 0.076936 0.007533
vt 0.214107 0.055979
vt 0.182388 0.171306
vt 0.361692 0.195295
vt 0.277329 0.248408
vt 0.394803 0.379709
vt 0.337095 0.391690
vt 0.388564 0.497263
vt 0.366601 0.497088
vt 0.827774 0.008056
vt 0.965403 0.007534
vt 0.956943 0.152762
vt 0.837334 0.153215
vt 0.943150 0.355247
vt 0.841464 0.356121
vt 0.182539 0.036276
vt 0.177053 0.013443
vt 0.198203 0.007520
vt 0.203689 0.030353
vt 0.180331 0.611865
vt 0.060721 0.612003
vt 0.051557 0.478417
vt 0.189187 0.478258
vt 0.176736 0.733856
vt 0.075047 0.733466
vt 0.697630 0.285712
vt 0.835258 0.284906
vt 0.827098 0.430152
vt 0.707490 0.430852
vt 0.824925 0.633087
vt 0.723235 0.633194
vt 0.149165 0.030348
vt 0.154655 0.007516
vt 0.175804 0.013442
vt 0.170314 0.036274
vt 0.695311 0.582894
vt 0.575703 0.582184
vt 0.567485 0.448537
vt 0.705113 0.449353
vt 0.680405 0.704287
vt 0.578715 0.704191
vt 0.914740 0.540444
vt 0.852894 0.541184
vt 0.889826 0.655496
vt 0.866346 0.655801
vt 0.166029 0.886492
vt 0.104181 0.885955
vt 0.153763 0.992513
vt 0.130281 0.992247
vt 0.815280 0.818252
vt 0.753430 0.818108
vt 0.802934 0.932994
vt 0.779452 0.932915
vt 0.650543 0.856635
vt 0.588694 0.856877
vt 0.623935 0.962802
vt 0.600453 0.962955
vn -0.018420 -0.945686 0.324560
vn -0.018420 -0.945686 0.324560
vn -0.018420 -0.945686 0.324560
vn -0.018420 -0.945686 0.324560
vn -0.059260 0.998040 -0.020127
vn -0.059260 0.998040 -0.020127
vn -0.059260 0.998040 -0.020127
vn -0.059260 0.998040 -0.020127
vn -0.013968 0.978011 -0.208085
vn -0.013968 0.978011 -0.208085
vn -0.013968 0.978011 -0.208085
vn -0.013968 0.978011 -0.208085
vn 0.947164 0.080233 0.310553
vn 0.947164 0.080233 0.310553
vn 0.947164 0.080233 0.310553
vn 0.947164 0.080233 0.310553
vn -0.980636 -0.053460 -0.188399
vn -0.980636 -0.053460 -0.188399
vn -0.980637 -0.053460 -0.188399
vn -0.980637 -0.053460 -0.188399
vn -0.120432 -0.735244 0.667018
vn -0.120432 -0.735244 0.667018
vn -0.120432 -0.735244 0.667018
vn -0.120432 -0.735244 0.667018
vn 0.940066 0.114792 0.321089
vn 0.940066 0.114792 0.321089
vn 0.940066 0.114792 0.321089
vn 0.940066 0.114792 0.321089
vn 0.103136 0.783710 -0.612504
vn 0.103136 0.783710 -0.612504
vn 0.103136 0.783710 -0.612504
vn 0.103136 0.783710 -0.612504
vn -0.970864 -0.053360 -0.233616
vn -0.970864 -0.053360 -0.233616
vn -0.970864 -0.053360 -0.233616
vn -0.970864 -0.053360 -0.233616
vn -0.227044 -0.182302 0.956670
vn -0.227044 -0.182302 0.956670
vn -0.227044 -0.182302 0.956670
vn -0.227044 -0.182302 0.956670
vn 0.920394 0.221600 0.322131
vn 0.920394 0.221600 0.322131
vn 0.920394 0.221600 0.322131
vn 0.920394 0.221600 0.322131
vn 0.198373 0.392154 -0.898256
vn 0.198373 0.392154 -0.898256
vn 0.198373 0.392154 -0.898256
vn 0.198373 0.392154 -0.898256
vn -0.972862 -0.008072 -0.231247
vn -0.972862 -0.008072 -0.231247
vn -0.972862 -0.008072 -0.231247
vn -0.972862 -0.008072 -0.231247
vn -0.239809 0.058126 0.969079
vn -0.239809 0.058126 0.969079
vn -0.239809 0.058126 0.969079
vn -0.239809 0.058126 0.969079
vn 0.911659 0.293828 0.287305
vn 0.911658 0.293828 0.287305
vn 0.911659 0.293828 0.287305
vn 0.911658 0.293828 0.287305
vn 0.210851 0.272514 -0.938764
vn 0.210851 0.272514 -0.938764
vn 0.210851 0.272514 -0.938764
vn 0.210851 0.272514 -0.938764
vn -0.967822 0.045054 -0.247568
vn -0.967822 0.045054 -0.247568
vn -0.967822 0.045054 -0.247568
vn -0.967822 0.045054 -0.247568
vn 0.018420 -0.945686 0.324560
vn 0.018420 -0.945686 0.324560
vn 0.018420 -0.945686 0.324560
vn 0.018420 -0.945686 0.324560
vn 0.059260 0.998040 -0.020126
vn 0.059260 0.998040 -0.020126
vn 0.059260 0.998040 -0.020126
vn 0.059260 0.998040 -0.020126
vn 0.013968 0.978011 -0.208085
vn 0.013968 0.978011 -0.208085
vn 0.013968 0.978011 -0.208085
vn 0.013968 0.978011 -0.208085
vn 0.980636 -0.053461 -0.188399
vn 0.980636 -0.053461 -0.188399
vn 0.980636 -0.053461 -0.188399
vn 0.980636 -0.053461 -0.188399
vn -0.947164 0.080233 0.310553
vn -0.947164 0.080233 0.310553
vn -0.947164 0.080233 0.310553
vn -0.947164 0.080233 0.310553
vn 0.120432 -0.735244 0.667017
vn 0.120432 -0.735244 0.667017
vn 0.120432 -0.735244 0.667017
vn 0.120432 -0.735244 0.667017
vn 0.970864 -0.053360 -0.233616
vn 0.970864 -0.053360 -0.233616
vn 0.970864 -0.053360 -0.233616
vn 0.970864 -0.053360 -0.233616
vn -0.103136 0.783710 -0.612504
vn -0.103136 0.783710 -0.612504
vn -0.103136 0.783710 -0.612504
vn -0.103136 0.783710 -0.612504
vn -0.940066 0.114792 0.321089
vn -0.940066 0.114792 0.321089
vn -0.940066 0.114792 0.321089
vn -0.940066 0.114792 0.321089
vn 0.227044 -0.182303 0.956670
vn 0.227044 -0.182303 0.956670
vn 0.227044 -0.182303 0.956670
vn 0.227044 -0.182303 0.956670
vn 0.972862 -0.008072 -0.231247
vn 0.972862 -0.008072 -0.231247
vn 0.972862 -0.008072 -0.231247
vn 0.972862 -0.008072 -0.231247
vn -0.198373 0.392154 -0.898256
vn -0.198373 0.392154 -0.898256
vn -0.198373 0.392154 -0.898256
vn -0.198373 0.392154 -0.898256
vn -0.920394 0.221600 0.322131
vn -0.920394 0.221600 0.322131
vn -0.920394 0.221600 0.322131
vn -0.920394 0.221600 0.322131
vn 0.239809 0.058126 0.969079
vn 0.239809 0.058126 0.969079
vn 0.239809 0.058126 0.969079
vn 0.239809 0.058126 0.969079
vn 0.967822 0.045054 -0.247568
vn 0.967822 0.045054 -0.247568
vn 0.967822 0.045054 -0.247568
vn 0.967822 0.045054 -0.247568
vn -0.210851 0.272514 -0.938764
vn -0.210851 0.272514 -0.938764
vn -0.210851 0.272514 -0.938764
vn -0.210851 0.272514 -0.938764
vn -0.911659 0.293828 0.287305
vn -0.911659 0.293828 0.287305
vn -0.911658 0.293828 0.287305
vn -0.911659 0.293828 0.287305
g PlayerHorns
usemtl initialShadingGroup
f 1/41/1 2/42/2 4/43/3 3/44/4
f 17/47/5 18/48/6 19/49/7 20/50/8
f 5/51/9 6/52/10 8/53/11 7/54/12
f 2/1/13 8/2/14 6/3/15 4/4/16
f 7/11/17 1/12/18 3/13/19 5/14/20
f 3/44/21 4/43/22 10/45/23 9/46/24
f 4/4/25 6/3/26 11/5/27 10/6/28
f 6/52/29 5/51/30 12/55/31 11/56/32
f 5/14/33 3/13/34 9/15/35 12/16/36
f 9/46/37 10/45/38 14/73/39 13/74/40
f 10/6/41 11/5/42 15/7/43 14/8/44
f 11/56/45 12/55/46 16/77/47 15/78/48
f 12/16/49 9/15/50 13/17/51 16/18/52
f 13/74/53 14/73/54 18/75/55 17/76/56
f 14/8/57 15/7/58 19/9/59 18/10/60
f 15/78/61 16/77/62 20/79/63 19/80/64
f 16/18/65 13/17/66 17/19/67 20/20/68
f 21/57/69 22/58/70 24/59/71 23/60/72
f 37/63/73 38/64/74 39/65/75 40/66/76
f 25/67/77 26/68/78 28/69/79 27/70/80
f 22/21/81 28/22/82 26/23/83 24/24/84
f 27/31/85 21/32/86 23/33/87 25/34/88
f 23/60/89 24/59/90 30/61/91 29/62/92
f 24/24/93 26/23/94 31/25/95 30/26/96
f 26/68/97 25/67/98 32/71/99 31/72/100
f 25/34/101 23/33/102 29/35/103 32/36/104
f 29/62/105 30/61/106 34/81/107 33/82/108
f 30/26/109 31/25/110 35/27/111 34/28/112
f 31/72/113 32/71/114 36/85/115 35/86/116
f 32/36/117 29/35/118 33/37/119 36/38/120
f 33/82/121 34/81/122 38/83/123 37/84/124
f 34/28/125 35/27/126 39/29/127 38/30/128
f 35/86/129 36/85/130 40/87/131 39/88/132
f 36/38/133 33/37/134 37/39/135 40/40/136
